<?xml version="1.0" encoding="UTF-8"?>
<!DOCTYPE svg PUBLIC "-//W3C//DTD SVG 1.1//EN" "http://www.w3.org/Graphics/SVG/1.1/DTD/svg11.dtd">
<svg xmlns="http://www.w3.org/2000/svg" version="1.1" width="40px" height="40px" style="shape-rendering:geometricPrecision; text-rendering:geometricPrecision; image-rendering:optimizeQuality; fill-rule:evenodd; clip-rule:evenodd" xmlns:xlink="http://www.w3.org/1999/xlink">
<g><path style="opacity:1" fill="#00a7f3" d="M -0.5,-0.5 C 2.5,-0.5 5.5,-0.5 8.5,-0.5C 9.83333,1.16667 11.1667,2.83333 12.5,4.5C 10.8333,6.5 9.16667,8.5 7.5,10.5C 4.83333,12.8333 2.16667,15.1667 -0.5,17.5C -0.5,11.5 -0.5,5.5 -0.5,-0.5 Z"/></g>
<g><path style="opacity:1" fill="#9275e5" d="M 8.5,-0.5 C 11.5,-0.5 14.5,-0.5 17.5,-0.5C 16.1667,1.5 14.5,3.16667 12.5,4.5C 11.1667,2.83333 9.83333,1.16667 8.5,-0.5 Z"/></g>
<g><path style="opacity:1" fill="#e9823a" d="M 17.5,-0.5 C 24.8333,-0.5 32.1667,-0.5 39.5,-0.5C 39.5,-0.166667 39.5,0.166667 39.5,0.5C 33.1667,6.5 26.8333,12.5 20.5,18.5C 19.1667,19.1667 18.1667,20.1667 17.5,21.5C 16.1667,22.5 14.8333,23.5 13.5,24.5C 10.9884,20.1338 8.98838,15.4671 7.5,10.5C 9.16667,8.5 10.8333,6.5 12.5,4.5C 14.5,3.16667 16.1667,1.5 17.5,-0.5 Z"/></g>
<g><path style="opacity:1" fill="#e93b6e" d="M 7.5,10.5 C 8.98838,15.4671 10.9884,20.1338 13.5,24.5C 9.16667,29.5 4.5,34.1667 -0.5,38.5C -0.5,31.5 -0.5,24.5 -0.5,17.5C 2.16667,15.1667 4.83333,12.8333 7.5,10.5 Z"/></g>
<g><path style="opacity:1" fill="#a960f0" d="M 20.5,18.5 C 26.5,25.1667 32.8333,31.5 39.5,37.5C 39.5,38.1667 39.5,38.8333 39.5,39.5C 38.1667,39.5 36.8333,39.5 35.5,39.5C 29.8333,33.1667 23.8333,27.1667 17.5,21.5C 18.1667,20.1667 19.1667,19.1667 20.5,18.5 Z"/></g>
<g><path style="opacity:1" fill="#00a8f2" d="M 17.5,21.5 C 23.8333,27.1667 29.8333,33.1667 35.5,39.5C 23.5,39.5 11.5,39.5 -0.5,39.5C -0.5,39.1667 -0.5,38.8333 -0.5,38.5C 4.5,34.1667 9.16667,29.5 13.5,24.5C 14.8333,23.5 16.1667,22.5 17.5,21.5 Z"/></g>
</svg>
